<svg width="40" height="40" viewBox="0 0 40 40" fill="none" xmlns="http://www.w3.org/2000/svg">
<path d="M6.66699 20.0003C6.66699 15.9633 6.66699 13.9447 7.30287 12.3441C8.21768 10.0414 10.0414 8.21768 12.3441 7.30287C13.9447 6.66699 15.9633 6.66699 20.0003 6.66699V6.66699C24.0374 6.66699 26.0559 6.66699 27.6565 7.30287C29.9593 8.21768 31.783 10.0414 32.6978 12.3441C33.3337 13.9447 33.3337 15.9633 33.3337 20.0003V29.3337C33.3337 31.2193 33.3337 32.1621 32.7479 32.7479C32.1621 33.3337 31.2193 33.3337 29.3337 33.3337H20.0003C15.9633 33.3337 13.9447 33.3337 12.3441 32.6978C10.0414 31.783 8.21768 29.9593 7.30287 27.6565C6.66699 26.0559 6.66699 24.0374 6.66699 20.0003V20.0003Z" stroke="#9B5DE5" stroke-width="2"/>
<path d="M15 18.333L25 18.333" stroke="#9B5DE5" stroke-width="2" stroke-linecap="round" stroke-linejoin="round"/>
<path d="M20 25H25" stroke="#9B5DE5" stroke-width="2" stroke-linecap="round" stroke-linejoin="round"/>
</svg>
