<svg width="89" height="63" viewBox="0 0 89 63" fill="none" xmlns="http://www.w3.org/2000/svg">
<path d="M84.0833 12.75H4.91666C2.625 12.75 0.75 10.875 0.75 8.58333V4.41666C0.75 2.125 2.625 0.25 4.91666 0.25H84.0833C86.3749 0.25 88.2499 2.125 88.2499 4.41666V8.58333C88.2499 10.875 86.3749 12.75 84.0833 12.75Z" fill="url(#paint0_linear_37_404)"/>
<path d="M84.0833 37.75H4.91666C2.625 37.75 0.75 35.875 0.75 33.5833V29.4167C0.75 27.125 2.625 25.25 4.91666 25.25H84.0833C86.3749 25.25 88.2499 27.125 88.2499 29.4167V33.5833C88.2499 35.875 86.3749 37.75 84.0833 37.75Z" fill="url(#paint1_linear_37_404)"/>
<path d="M84.0833 62.75H4.91666C2.625 62.75 0.75 60.875 0.75 58.5833V54.4167C0.75 52.125 2.625 50.25 4.91666 50.25H84.0833C86.3749 50.25 88.2499 52.125 88.2499 54.4167V58.5833C88.2499 60.875 86.3749 62.75 84.0833 62.75Z" fill="url(#paint2_linear_37_404)"/>
<defs>
<linearGradient id="paint0_linear_37_404" x1="19.6375" y1="-18.3625" x2="67.1895" y2="29.1896" gradientUnits="userSpaceOnUse">
<stop offset="0.237" stop-color="#00C4B4"/>
<stop offset="0.85" stop-color="#00C4B4" stop-opacity="0.54118"/>
</linearGradient>
<linearGradient id="paint1_linear_37_404" x1="19.6375" y1="6.63751" x2="67.1895" y2="54.1896" gradientUnits="userSpaceOnUse">
<stop offset="0.237" stop-color="#00C4B4"/>
<stop offset="0.85" stop-color="#00C4B4" stop-opacity="0.54118"/>
</linearGradient>
<linearGradient id="paint2_linear_37_404" x1="19.6375" y1="31.6375" x2="67.1895" y2="79.1896" gradientUnits="userSpaceOnUse">
<stop offset="0.237" stop-color="#00C4B4"/>
<stop offset="0.85" stop-color="#00C4B4" stop-opacity="0.54118"/>
</linearGradient>
</defs>
</svg>
