<svg width="85" height="85" viewBox="0 0 85 85" fill="none" xmlns="http://www.w3.org/2000/svg">
<path d="M42.4991 53.7578L12.1416 84.1153L0.882812 72.8566L31.2403 42.4991L0.882812 12.1416L12.1416 0.882812L42.4991 31.2403L72.8566 0.882812L84.1153 12.1416L53.7578 42.4991L84.1153 72.8566L72.8566 84.1153L42.4991 53.7578Z" fill="#00C4B4"/>
<path d="M12.1425 1.7675L41.615 31.24L42.5 32.125L43.3838 31.2412L72.8575 1.7675L83.2325 12.1425L53.7588 41.6162L52.875 42.5L53.7588 43.3838L83.2312 72.8575L72.8563 83.2325L43.3838 53.7588L42.5 52.875L41.6162 53.7588L12.1425 83.2325L1.7675 72.8575L31.2412 43.3838L32.125 42.5L31.2412 41.6162L1.7675 12.1425L12.1425 1.7675ZM72.8575 0L42.5 30.3575L12.1425 0L0 12.1425L30.3575 42.5L0 72.8575L12.1425 85L42.5 54.6425L72.8575 85L85 72.8575L54.6425 42.5L85 12.1425L72.8575 0Z" fill="#00C4B4"/>
</svg>
