<svg width="6042" height="6042" viewBox="0 0 6042 6042" fill="none" xmlns="http://www.w3.org/2000/svg">
<path d="M799.115 4116.66L892.162 4023.61C898.534 4017.28 903.59 4009.75 907.041 4001.45C910.492 3993.15 912.268 3984.26 912.268 3975.27C912.268 3966.29 910.492 3957.39 907.041 3949.1C903.59 3940.8 898.534 3933.27 892.162 3926.94C885.82 3920.58 878.286 3915.54 869.992 3912.1C861.697 3908.65 852.806 3906.88 843.826 3906.88C834.846 3906.88 825.954 3908.65 817.66 3912.1C809.366 3915.54 801.832 3920.58 795.49 3926.94L702.443 4019.99C696.071 4026.32 691.014 4033.85 687.564 4042.15C684.113 4050.44 682.337 4059.34 682.337 4068.32C682.337 4077.31 684.113 4086.2 687.564 4094.5C691.014 4102.79 696.071 4110.32 702.443 4116.66C708.785 4123.01 716.319 4128.06 724.613 4131.5C732.907 4134.94 741.799 4136.71 750.779 4136.71C759.759 4136.71 768.65 4134.94 776.945 4131.5C785.239 4128.06 792.773 4123.01 799.115 4116.66Z" fill="#EBEBEB"/>
<path d="M2070.11 5039.03L2129.2 4921.45C2137.31 4905.28 2138.67 4886.55 2132.99 4869.37C2127.3 4852.2 2115.03 4837.99 2098.87 4829.85C2090.87 4825.82 2082.15 4823.4 2073.21 4822.75C2064.27 4822.09 2055.29 4823.2 2046.78 4826.02C2038.27 4828.83 2030.4 4833.3 2023.62 4839.16C2016.84 4845.03 2011.29 4852.17 2007.27 4860.18L1948.18 4977.76C1944.15 4985.76 1941.74 4994.48 1941.08 5003.42C1940.42 5012.36 1941.53 5021.34 1944.35 5029.85C1947.17 5038.36 1951.63 5046.23 1957.5 5053.01C1963.36 5059.78 1970.5 5065.34 1978.51 5069.36C1986.52 5073.39 1995.24 5075.8 2004.18 5076.46C2013.11 5077.12 2022.09 5076.01 2030.6 5073.19C2039.11 5070.37 2046.98 5065.9 2053.76 5060.04C2060.54 5054.18 2066.09 5047.04 2070.11 5039.03Z" fill="#EBEBEB"/>
<path d="M1255.41 3853.95L1325.37 3843.92C1343.28 3841.35 1359.44 3831.77 1370.29 3817.29C1381.15 3802.81 1385.81 3784.62 1383.26 3766.7C1382 3757.83 1379 3749.29 1374.43 3741.57C1369.87 3733.86 1363.83 3727.12 1356.66 3721.74C1349.48 3716.36 1341.32 3712.46 1332.63 3710.24C1323.95 3708.02 1314.91 3707.54 1306.04 3708.82L1236.07 3718.85C1227.2 3720.11 1218.66 3723.11 1210.94 3727.67C1203.23 3732.24 1196.49 3738.28 1191.11 3745.45C1185.73 3752.62 1181.83 3760.79 1179.61 3769.47C1177.39 3778.16 1176.91 3787.19 1178.19 3796.07C1180.76 3813.98 1190.34 3830.13 1204.82 3840.99C1219.3 3851.84 1237.49 3856.5 1255.41 3853.95Z" fill="#EBEBEB"/>
<path d="M700.026 4777.29L689.996 4707.32C688.737 4698.44 685.74 4689.9 681.176 4682.19C676.611 4674.47 670.57 4667.74 663.397 4662.36C656.224 4656.98 648.061 4653.07 639.375 4650.86C630.69 4648.64 621.652 4648.16 612.78 4649.44C603.92 4650.7 595.396 4653.69 587.695 4658.25C579.995 4662.81 573.269 4668.84 567.903 4676C562.538 4683.16 558.638 4691.31 556.427 4699.98C554.216 4708.65 553.737 4717.68 555.018 4726.53L564.927 4796.62C567.53 4814.52 577.116 4830.65 591.587 4841.5C606.057 4852.35 624.235 4857.02 642.144 4854.5C660.055 4851.93 676.212 4842.35 687.065 4827.87C697.918 4813.39 702.58 4795.2 700.026 4777.29Z" fill="#EBEBEB"/>
<path d="M2200.62 4671.92V4517C2200.62 4502.58 2188.93 4490.9 2174.52 4490.9H2090.29C2075.87 4490.9 2064.19 4502.58 2064.19 4517V4671.92C2064.19 4686.33 2075.87 4698.02 2090.29 4698.02H2174.52C2188.93 4698.02 2200.62 4686.33 2200.62 4671.92Z" fill="#EBEBEB"/>
<path d="M1128.77 5370.37L1197.04 5388.62C1205.7 5390.94 1214.73 5391.52 1223.61 5390.35C1232.5 5389.17 1241.06 5386.26 1248.82 5381.77C1256.57 5377.28 1263.37 5371.3 1268.81 5364.18C1274.25 5357.07 1278.24 5348.94 1280.54 5340.28C1282.86 5331.62 1283.45 5322.58 1282.28 5313.69C1281.1 5304.79 1278.19 5296.22 1273.7 5288.46C1269.21 5280.69 1263.24 5273.88 1256.12 5268.43C1249 5262.97 1240.87 5258.97 1232.21 5256.66L1163.93 5238.41C1155.27 5236.09 1146.23 5235.5 1137.34 5236.68C1128.44 5237.85 1119.87 5240.77 1112.1 5245.25C1104.34 5249.74 1097.53 5255.72 1092.08 5262.84C1086.62 5269.96 1082.62 5278.08 1080.31 5286.75C1075.7 5304.26 1078.2 5322.89 1087.28 5338.56C1096.36 5354.23 1111.28 5365.67 1128.77 5370.37Z" fill="#EBEBEB"/>
<path d="M1365.13 5352C1799.86 5352 2152.28 4999.58 2152.28 4564.85C2152.28 4130.12 1799.86 3777.7 1365.13 3777.7C930.398 3777.7 577.978 4130.12 577.978 4564.85C577.978 4999.58 930.398 5352 1365.13 5352Z" fill="#EBEBEB"/>
<path d="M1651.52 4097.93C1653.5 4135.73 1643.29 4173.18 1622.4 4204.75C1601.3 4237.28 1571.71 4263.43 1536.84 4280.39C1500.99 4298.4 1459.57 4301.9 1421.2 4290.18C1384.84 4278.66 1353.7 4254.7 1333.23 4222.51C1361.21 4243.23 1393.45 4257.47 1427.6 4264.2C1443.59 4267.04 1459.95 4267.04 1475.94 4264.2C1491.89 4261.74 1507.35 4256.76 1521.74 4249.46C1529.11 4245.83 1536.6 4241.85 1543.85 4237.38C1551.1 4232.9 1557.87 4228.31 1564.27 4223C1577.58 4212.91 1589.73 4201.41 1600.53 4188.68C1623.26 4162.03 1640.58 4131.2 1651.52 4097.93Z" fill="#C7C7C7"/>
<path d="M1368.51 4143.24C1365.02 4117 1370.84 4090.36 1384.95 4067.96C1399.1 4044.68 1419.65 4025.96 1444.16 4014.06C1456.79 4007.71 1470.55 4003.92 1484.65 4002.9C1498.76 4001.89 1512.92 4003.67 1526.33 4008.14C1551.66 4016.75 1572.72 4034.74 1585.18 4058.41C1565.25 4046.1 1543.07 4037.88 1519.93 4034.24C1499.17 4031.79 1478.14 4035.53 1459.51 4045C1418.07 4065.37 1385.65 4100.37 1368.51 4143.24Z" fill="#C7C7C7"/>
<path d="M1101.94 4683.88C1111.64 4707.84 1112.33 4734.5 1103.87 4758.92C1095.59 4784.29 1079.73 4806.52 1058.44 4822.6C1047.58 4831.08 1035.13 4837.3 1021.82 4840.89C1008.52 4844.48 994.632 4845.37 980.979 4843.51C955.273 4839.96 931.779 4827.05 915 4807.26C936.649 4814.4 959.408 4817.6 982.187 4816.68C1002.35 4815.22 1021.63 4807.78 1037.53 4795.29C1054.43 4782.53 1068.64 4766.56 1079.34 4748.29C1090.59 4728.31 1098.24 4706.51 1101.94 4683.88Z" fill="#C7C7C7"/>
<path d="M938.927 4773.18C934.583 4765.19 931.876 4756.42 930.963 4747.37C930.05 4738.32 930.95 4729.19 933.61 4720.49C938.855 4702.1 949.974 4685.93 965.27 4674.45C973.108 4668.26 982.163 4663.79 991.845 4661.33C1001.53 4658.87 1011.62 4658.49 1021.46 4660.19C1030.49 4661.75 1039.11 4665.12 1046.79 4670.11C1054.48 4675.09 1061.07 4681.59 1066.17 4689.19C1051.05 4686.24 1035.58 4685.55 1020.25 4687.14C1007.78 4688.96 995.988 4694 986.054 4701.76C962.943 4719.76 946.385 4744.85 938.927 4773.18Z" fill="#C7C7C7"/>
<path d="M819.658 4508.66C826.609 4515.16 832.182 4522.99 836.043 4531.69C839.904 4540.39 841.976 4549.78 842.134 4559.29C842.313 4569.58 840.426 4579.8 836.586 4589.35C832.747 4598.9 827.031 4607.58 819.779 4614.88C812.33 4622.37 803.255 4628.04 793.258 4631.46C783.262 4634.87 772.613 4635.94 762.138 4634.58C743.365 4632.48 725.899 4623.94 712.714 4610.41C728.958 4611.03 745.225 4610.1 761.292 4607.63C774.048 4605.73 785.862 4599.8 795.006 4590.71C804.417 4581.16 811.274 4569.4 814.945 4556.51C819.168 4540.94 820.761 4524.76 819.658 4508.66Z" fill="#C7C7C7"/>
<path d="M722.14 4585.15C716.416 4581.25 711.671 4576.08 708.276 4570.04C704.88 4564.01 702.925 4557.27 702.564 4550.35C702.072 4542.75 703.209 4535.13 705.897 4528C708.585 4520.88 712.763 4514.41 718.152 4509.02C723.707 4503.43 730.528 4499.26 738.038 4496.86C745.547 4494.46 753.524 4493.91 761.292 4495.25C767.984 4496.25 774.409 4498.57 780.197 4502.08C785.984 4505.58 791.018 4510.2 795.006 4515.67C783.84 4517.18 772.78 4519.4 761.896 4522.32C754.604 4524.15 747.957 4527.95 742.683 4533.31C737.033 4539.04 732.559 4545.81 729.511 4553.25C725.55 4563.48 723.068 4574.22 722.14 4585.15Z" fill="#C7C7C7"/>
<path d="M1898.28 4275.56C1899.19 4285.03 1898.16 4294.59 1895.25 4303.65C1892.34 4312.7 1887.61 4321.07 1881.36 4328.24C1874.67 4336.06 1866.49 4342.45 1857.3 4347.06C1848.11 4351.66 1838.09 4354.39 1827.83 4355.07C1817.28 4355.72 1806.73 4353.93 1796.98 4349.84C1787.24 4345.75 1778.57 4339.48 1771.64 4331.51C1758.95 4317.57 1751.44 4299.69 1750.37 4280.88C1762.31 4292.11 1775.3 4302.19 1789.16 4310.96C1799.93 4317.91 1812.6 4321.33 1825.41 4320.75C1838.74 4319.91 1851.66 4315.75 1862.99 4308.67C1876.48 4299.63 1888.39 4288.44 1898.28 4275.56Z" fill="#C7C7C7"/>
<path d="M1774.54 4267.95C1772.86 4261.22 1772.76 4254.2 1774.25 4247.43C1775.74 4240.66 1778.77 4234.32 1783.11 4228.92C1787.8 4222.93 1793.7 4218 1800.43 4214.46C1807.16 4210.92 1814.56 4208.84 1822.15 4208.37C1830 4207.82 1837.87 4209.19 1845.07 4212.37C1852.28 4215.55 1858.59 4220.44 1863.47 4226.62C1867.91 4231.78 1871.26 4237.77 1873.33 4244.25C1875.41 4250.72 1876.17 4257.55 1875.56 4264.32C1866.22 4257.93 1856.45 4252.19 1846.31 4247.16C1839.66 4243.68 1832.17 4242.14 1824.68 4242.69C1816.67 4243.17 1808.83 4245.23 1801.6 4248.73C1791.72 4253.82 1782.6 4260.29 1774.54 4267.95Z" fill="#C7C7C7"/>
<path d="M1456.97 4810.4C1488.44 4824.64 1523.43 4829.21 1557.5 4823.54C1591.57 4817.87 1623.19 4802.2 1648.35 4778.53C1673.51 4754.86 1691.07 4724.26 1698.8 4690.59C1706.54 4656.93 1704.1 4621.72 1691.8 4589.45C1679.5 4557.17 1657.9 4529.27 1629.72 4509.29C1601.54 4489.31 1568.06 4478.15 1533.54 4477.23C1499.01 4476.3 1464.98 4485.65 1435.77 4504.09C1406.56 4522.53 1383.49 4549.23 1369.48 4580.8C1350.68 4622.86 1349.33 4670.65 1365.73 4713.7C1382.13 4756.74 1414.95 4791.52 1456.97 4810.4Z" fill="#DBDBDB"/>
<path d="M1609.47 4569.08C1632.12 4579.2 1652.06 4594.53 1667.64 4613.83C1683.22 4633.14 1694.02 4655.86 1699.13 4680.13C1703.86 4651.34 1701.26 4621.83 1691.57 4594.31C1681.88 4566.8 1665.41 4542.16 1643.69 4522.69C1621.97 4503.22 1595.69 4489.53 1567.28 4482.89C1538.87 4476.26 1509.25 4476.88 1481.15 4484.72C1453.05 4492.55 1427.37 4507.34 1406.5 4527.72C1385.62 4548.09 1370.21 4573.4 1361.69 4601.3C1353.18 4629.21 1351.83 4658.8 1357.78 4687.37C1363.72 4715.93 1376.76 4742.53 1395.7 4764.72C1385.89 4735.64 1384.75 4704.33 1392.42 4674.62C1400.09 4644.9 1416.23 4618.06 1438.89 4597.36C1461.55 4576.66 1489.74 4563 1520.03 4558.04C1550.32 4553.09 1581.39 4557.05 1609.47 4569.44V4569.08Z" fill="#C7C7C7"/>
<path d="M1768.49 4680.38C1769.39 4726.64 1755.97 4772.05 1730.07 4810.4C1703.85 4849.66 1667.64 4881.24 1625.18 4901.87C1581.78 4923.79 1531.66 4928.37 1485 4914.68C1440.46 4901.01 1401.86 4872.64 1375.52 4834.2C1409.37 4861.13 1449.06 4879.75 1491.41 4888.58C1501.53 4890.27 1511.73 4891.36 1521.98 4891.84C1532.1 4891.95 1542.21 4891.14 1552.19 4889.43C1572.33 4886.39 1591.87 4880.19 1610.07 4871.06C1619.38 4866.35 1628.68 4861.39 1637.62 4856.08C1646.57 4850.76 1655.27 4844.84 1663.24 4838.07C1679.92 4825.34 1695.08 4810.75 1708.44 4794.57C1736.07 4761.02 1756.51 4722.15 1768.49 4680.38Z" fill="#C7C7C7"/>
<path d="M1959.06 4746.59C1971.61 4749.59 1984.76 4748.79 1996.85 4744.29C2008.94 4739.8 2019.43 4731.82 2026.98 4721.36C2034.53 4710.9 2038.81 4698.44 2039.26 4685.55C2039.72 4672.65 2036.34 4659.92 2029.55 4648.95C2022.76 4637.98 2012.86 4629.28 2001.12 4623.94C1989.37 4618.6 1976.31 4616.87 1963.58 4618.97C1950.85 4621.07 1939.04 4626.9 1929.62 4635.72C1920.21 4644.55 1913.64 4655.96 1910.72 4668.53C1906.8 4685.29 1909.69 4702.92 1918.75 4717.55C1927.81 4732.19 1942.31 4742.63 1959.06 4746.59Z" fill="#DBDBDB"/>
<path d="M1997.73 4647.27C2006.74 4649.38 2015.12 4653.59 2022.19 4659.56C2029.27 4665.52 2034.84 4673.07 2038.45 4681.58C2038.15 4670.71 2035.11 4660.08 2029.61 4650.69C2024.12 4641.29 2016.34 4633.44 2007.01 4627.84C1997.68 4622.24 1987.08 4619.09 1976.21 4618.67C1965.34 4618.25 1954.53 4620.57 1944.79 4625.43C1935.05 4630.29 1926.7 4637.52 1920.49 4646.46C1914.29 4655.4 1910.44 4665.76 1909.29 4676.59C1908.15 4687.41 1909.75 4698.34 1913.95 4708.38C1918.15 4718.42 1924.81 4727.24 1933.32 4734.03C1925.94 4721.19 1923.73 4706.02 1927.16 4691.61C1930.64 4676.38 1940.03 4663.15 1953.26 4654.84C1966.5 4646.52 1982.49 4643.8 1997.73 4647.27Z" fill="#C7C7C7"/>
<path d="M2063.83 4676.51C2068.36 4693.44 2067.22 4711.4 2060.56 4727.62C2053.95 4744.31 2042.82 4758.83 2028.42 4769.55C2013.69 4780.87 1995.18 4786.11 1976.7 4784.18C1959.13 4782.15 1942.88 4773.87 1930.9 4760.85C1945.46 4767.49 1961.3 4770.88 1977.31 4770.76C1992.15 4770.25 2006.45 4765.04 2018.15 4755.9C2030.67 4746.38 2041.16 4734.45 2049 4720.81C2056.84 4707.18 2061.89 4692.12 2063.83 4676.51Z" fill="#C7C7C7"/>
<path d="M1512.55 5167.84C1530.82 5168.92 1549 5164.54 1564.78 5155.28C1580.57 5146.01 1593.24 5132.27 1601.21 5115.79C1609.17 5099.31 1612.07 5080.84 1609.52 5062.72C1606.98 5044.59 1599.12 5027.63 1586.92 5013.98C1574.73 5000.33 1558.76 4990.61 1541.04 4986.04C1523.32 4981.47 1504.64 4982.27 1487.37 4988.33C1470.1 4994.39 1455.02 5005.44 1444.03 5020.08C1433.05 5034.72 1426.66 5052.29 1425.67 5070.57C1424.98 5082.66 1426.69 5094.77 1430.68 5106.2C1434.68 5117.64 1440.89 5128.17 1448.96 5137.21C1457.03 5146.24 1466.8 5153.6 1477.71 5158.85C1488.62 5164.11 1500.46 5167.16 1512.55 5167.84Z" fill="#DBDBDB"/>
<path d="M1542.28 5019.45C1555.42 5020.14 1568.21 5023.94 1579.6 5030.54C1590.98 5037.13 1600.64 5046.34 1607.78 5057.39C1604.69 5042.22 1597.84 5028.07 1587.84 5016.26C1577.84 5004.44 1565.03 4995.33 1550.58 4989.78C1536.13 4984.22 1520.51 4982.4 1505.17 4984.48C1489.83 4986.56 1475.26 4992.47 1462.82 5001.67C1450.37 5010.87 1440.44 5023.06 1433.95 5037.11C1427.45 5051.17 1424.61 5066.63 1425.68 5082.07C1426.75 5097.52 1431.69 5112.44 1440.05 5125.47C1448.41 5138.5 1459.93 5149.2 1473.52 5156.6C1460.01 5140.45 1453.18 5119.74 1454.43 5098.72C1454.99 5087.75 1457.7 5076.99 1462.42 5067.06C1467.14 5057.14 1473.77 5048.24 1481.92 5040.88C1490.08 5033.51 1499.61 5027.83 1509.97 5024.15C1520.33 5020.48 1531.31 5018.88 1542.28 5019.45Z" fill="#C7C7C7"/>
<path d="M1642.09 5044.34C1651.03 5067.11 1652.84 5092.06 1647.29 5115.88C1641.77 5140.22 1629.88 5162.65 1612.85 5180.89C1595.52 5199.82 1571.72 5211.56 1546.15 5213.76C1521.59 5215.41 1497.18 5208.82 1476.79 5195.03C1498.59 5202.17 1521.79 5204.04 1544.46 5200.47C1565.97 5196.38 1585.57 5185.39 1600.28 5169.17C1615.59 5152.89 1627.25 5133.53 1634.48 5112.38C1641.71 5090.47 1644.31 5067.3 1642.09 5044.34Z" fill="#C7C7C7"/>
<path d="M1100.73 4276.16C1059.04 4339.85 966.962 4353.38 895.304 4306.37C823.645 4259.37 798.632 4169.58 840.442 4105.9C882.253 4042.22 974.091 4028.68 1045.87 4075.69C1117.65 4122.7 1142.3 4212.48 1100.73 4276.16Z" fill="#DBDBDB"/>
<path d="M871.861 4165.6C861.053 4182.82 854.767 4202.49 853.584 4222.79C852.401 4243.09 856.36 4263.36 865.094 4281.72C816.758 4232.18 804.674 4159.79 840.201 4105.78C881.769 4042.22 973.85 4028.68 1045.63 4075.69C1069.72 4090.55 1089.36 4111.62 1102.5 4136.69C1115.64 4161.76 1121.79 4189.9 1120.31 4218.16C1109.54 4185.08 1087.63 4156.77 1058.32 4138.04C993.305 4095.51 909.684 4107.71 871.861 4165.6Z" fill="#C7C7C7"/>
<path d="M1151.48 4171.04C1162.19 4187.45 1169.53 4205.82 1173.08 4225.09C1176.63 4244.36 1176.31 4264.15 1172.15 4283.3C1167.59 4303.26 1158.72 4321.98 1146.17 4338.16C1133.71 4354.53 1118.45 4368.56 1101.09 4379.6C1083.1 4389.7 1063.39 4396.37 1042.97 4399.3C1023.22 4401.77 1003.21 4401.2 983.638 4397.61C945.795 4390.99 910.058 4375.5 879.353 4352.42C914.275 4362.58 950.229 4368.78 986.538 4370.9C1020.09 4373.36 1053.64 4366.15 1083.21 4350.12C1097.31 4341.54 1109.89 4330.68 1120.43 4317.98C1131.47 4305.53 1140.11 4291.15 1145.93 4275.56C1157.3 4241.88 1159.22 4205.73 1151.48 4171.04Z" fill="#C7C7C7"/>
<path d="M4673.49 4106.99L4740.07 4119.2L4754.93 4189.4L4769.8 4119.2L4836.38 4106.87L4770.04 4090.68L4754.93 4024.46L4739.71 4090.68L4673.49 4106.99Z" fill="#C7C7C7"/>
<path d="M1926.91 3728.04L1993.5 3740.36L2008.36 3810.57L2023.22 3740.36L2089.81 3728.04L2023.59 3711.85L2008.36 3645.62L1993.26 3711.85L1926.91 3728.04Z" fill="#C7C7C7"/>
<path d="M3993.52 2977.98L4060.1 2990.31L4074.97 3060.4L4089.83 2990.31L4156.41 2977.98L4090.19 2961.67L4074.97 2895.45L4059.86 2961.67L3993.52 2977.98Z" fill="#C7C7C7"/>
<path d="M5306.21 3693.84L5343.42 3700.72L5351.76 3740L5360.1 3700.72L5397.2 3693.84L5360.22 3684.77L5351.76 3647.8L5343.3 3684.77L5306.21 3693.84Z" fill="#C7C7C7"/>
<path d="M2482.9 5186.21L2520 5193.1L2528.34 5232.37L2536.67 5193.1L2573.89 5186.21L2536.79 5177.15L2528.34 5140.17L2519.88 5177.15L2482.9 5186.21Z" fill="#C7C7C7"/>
<path d="M5215.21 1928.49L5252.43 1935.38L5260.77 1974.53L5268.99 1935.38L5306.2 1928.37L5269.23 1919.43L5260.77 1882.33L5252.19 1919.43L5215.21 1928.49Z" fill="#C7C7C7"/>
<path d="M826.425 2772.07L863.643 2778.96L871.981 2818.11L880.198 2778.96L917.417 2772.07L880.44 2763.01L871.981 2725.91L863.523 2763.01L826.425 2772.07Z" fill="#C7C7C7"/>
<path d="M1026.05 4768.23L1063.27 4775.12L1071.61 4814.27L1079.83 4775.12L1117.04 4768.23L1080.07 4759.16L1071.61 4722.07L1063.03 4759.16L1026.05 4768.23Z" fill="#C7C7C7"/>
<path d="M5071.65 2921.91L5108.87 2928.8L5117.09 2967.95L5125.43 2928.8L5162.65 2921.91L5125.67 2912.85L5117.09 2875.75L5108.63 2912.85L5071.65 2921.91Z" fill="#C7C7C7"/>
<path d="M3502.31 4189.4L3539.52 4196.29L3547.86 4235.56L3556.2 4196.29L3593.42 4189.4L3556.32 4180.34L3547.86 4143.36L3539.4 4180.34L3502.31 4189.4Z" fill="#C7C7C7"/>
<path d="M2148.41 1040.07L2185.63 1046.96L2193.97 1086.11L2202.31 1046.96L2239.41 1040.07L2202.43 1031.01L2193.97 993.91L2185.51 1031.01L2148.41 1040.07Z" fill="#C7C7C7"/>
<path d="M3604.9 4046.93L3642.12 4053.82L3650.46 4093.1L3658.79 4053.82L3696.01 4046.93L3658.91 4037.87L3650.46 4000.77L3642 4037.87L3604.9 4046.93Z" fill="#C7C7C7"/>
<path d="M2394.81 5271.04C2397.48 5271.33 2399.95 5272.59 2401.75 5274.58C2403.54 5276.58 2404.54 5279.17 2404.54 5281.86C2404.54 5284.54 2403.54 5287.14 2401.75 5289.13C2399.95 5291.13 2397.48 5292.39 2394.81 5292.67C2392.14 5292.39 2389.66 5291.13 2387.87 5289.13C2386.07 5287.14 2385.08 5284.54 2385.08 5281.86C2385.08 5279.17 2386.07 5276.58 2387.87 5274.58C2389.66 5272.59 2392.14 5271.33 2394.81 5271.04Z" fill="#C7C7C7"/>
<path d="M4318.7 3248.3C4321.37 3248.58 4323.84 3249.84 4325.64 3251.84C4327.44 3253.84 4328.43 3256.43 4328.43 3259.12C4328.43 3261.8 4327.44 3264.39 4325.64 3266.39C4323.84 3268.39 4321.37 3269.65 4318.7 3269.93C4316.03 3269.65 4313.56 3268.39 4311.76 3266.39C4309.96 3264.39 4308.97 3261.8 4308.97 3259.12C4308.97 3256.43 4309.96 3253.84 4311.76 3251.84C4313.56 3249.84 4316.03 3248.58 4318.7 3248.3Z" fill="#C7C7C7"/>
<path d="M3398.5 4156.9C3401.36 4156.9 3404.09 4158.03 3406.11 4160.05C3408.13 4162.07 3409.26 4164.8 3409.26 4167.65C3409.26 4170.51 3408.13 4173.24 3406.11 4175.26C3404.09 4177.27 3401.36 4178.41 3398.5 4178.41C3395.65 4178.41 3392.92 4177.27 3390.9 4175.26C3388.88 4173.24 3387.75 4170.51 3387.75 4167.65C3387.75 4164.8 3388.88 4162.07 3390.9 4160.05C3392.92 4158.03 3395.65 4156.9 3398.5 4156.9Z" fill="#C7C7C7"/>
<path d="M1798.94 5190.2C1801.8 5190.2 1804.53 5191.33 1806.55 5193.35C1808.57 5195.37 1809.7 5198.1 1809.7 5200.95C1809.7 5203.81 1808.57 5206.54 1806.55 5208.56C1804.53 5210.58 1801.8 5211.71 1798.94 5211.71C1796.09 5211.71 1793.36 5210.58 1791.34 5208.56C1789.32 5206.54 1788.19 5203.81 1788.19 5200.95C1788.19 5198.1 1789.32 5195.37 1791.34 5193.35C1793.36 5191.33 1796.09 5190.2 1798.94 5190.2Z" fill="#C7C7C7"/>
<path d="M5399.25 5333.03C5401.92 5333.31 5404.4 5334.58 5406.19 5336.57C5407.99 5338.57 5408.98 5341.16 5408.98 5343.85C5408.98 5346.53 5407.99 5349.12 5406.19 5351.12C5404.4 5353.12 5401.92 5354.38 5399.25 5354.66C5396.58 5354.38 5394.11 5353.12 5392.31 5351.12C5390.52 5349.12 5389.52 5346.53 5389.52 5343.85C5389.52 5341.16 5390.52 5338.57 5392.31 5336.57C5394.11 5334.58 5396.58 5333.31 5399.25 5333.03Z" fill="#C7C7C7"/>
<path d="M4831.91 3389.68C4834.76 3389.68 4837.5 3390.82 4839.51 3392.83C4841.53 3394.85 4842.66 3397.59 4842.66 3400.44C4842.66 3403.29 4841.53 3406.03 4839.51 3408.04C4837.5 3410.06 4834.76 3411.19 4831.91 3411.19C4829.06 3411.19 4826.32 3410.06 4824.3 3408.04C4822.29 3406.03 4821.15 3403.29 4821.15 3400.44C4821.15 3397.59 4822.29 3394.85 4824.3 3392.83C4826.32 3390.82 4829.06 3389.68 4831.91 3389.68Z" fill="#C7C7C7"/>
<path d="M2665.01 5077.09C2667.02 5077.09 2668.96 5077.9 2670.39 5079.32C2671.82 5080.75 2672.62 5082.69 2672.62 5084.71C2672.62 5086.73 2671.82 5088.66 2670.39 5090.09C2668.96 5091.52 2667.02 5092.32 2665.01 5092.32C2662.99 5092.32 2661.05 5091.52 2659.62 5090.09C2658.19 5088.66 2657.39 5086.73 2657.39 5084.71C2657.39 5082.69 2658.19 5080.75 2659.62 5079.32C2661.05 5077.9 2662.99 5077.09 2665.01 5077.09Z" fill="#C7C7C7"/>
<path d="M1141.45 1115.6C1143.32 1115.83 1145.04 1116.74 1146.29 1118.15C1147.54 1119.57 1148.22 1121.39 1148.22 1123.27C1148.22 1125.16 1147.54 1126.97 1146.29 1128.39C1145.04 1129.8 1143.32 1130.71 1141.45 1130.94C1139.59 1130.71 1137.87 1129.8 1136.62 1128.39C1135.37 1126.97 1134.69 1125.16 1134.69 1123.27C1134.69 1121.39 1135.37 1119.57 1136.62 1118.15C1137.87 1116.74 1139.59 1115.83 1141.45 1115.6Z" fill="#C7C7C7"/>
<path d="M4084.39 3567.8C4086.41 3567.8 4088.35 3568.61 4089.78 3570.03C4091.2 3571.46 4092.01 3573.4 4092.01 3575.42C4092.01 3577.44 4091.2 3579.37 4089.78 3580.8C4088.35 3582.23 4086.41 3583.03 4084.39 3583.03C4082.37 3583.03 4080.44 3582.23 4079.01 3580.8C4077.58 3579.37 4076.78 3577.44 4076.78 3575.42C4076.78 3573.4 4077.58 3571.46 4079.01 3570.03C4080.44 3568.61 4082.37 3567.8 4084.39 3567.8Z" fill="#C7C7C7"/>
<path d="M3715.35 4227.95C3717.37 4227.95 3719.3 4228.76 3720.73 4230.18C3722.16 4231.61 3722.96 4233.55 3722.96 4235.57C3722.96 4237.59 3722.16 4239.52 3720.73 4240.95C3719.3 4242.38 3717.37 4243.18 3715.35 4243.18C3713.33 4243.18 3711.39 4242.38 3709.96 4240.95C3708.54 4239.52 3707.73 4237.59 3707.73 4235.57C3707.73 4233.55 3708.54 4231.61 3709.96 4230.18C3711.39 4228.76 3713.33 4227.95 3715.35 4227.95Z" fill="#C7C7C7"/>
<path d="M3111.75 4099.26C3113.62 4099.49 3115.34 4100.4 3116.59 4101.81C3117.83 4103.23 3118.52 4105.05 3118.52 4106.93C3118.52 4108.81 3117.83 4110.63 3116.59 4112.05C3115.34 4113.46 3113.62 4114.37 3111.75 4114.6C3109.88 4114.37 3108.16 4113.46 3106.92 4112.05C3105.67 4110.63 3104.98 4108.81 3104.98 4106.93C3104.98 4105.05 3105.67 4103.23 3106.92 4101.81C3108.16 4100.4 3109.88 4099.49 3111.75 4099.26Z" fill="#C7C7C7"/>
<path d="M3825.31 3429.2C3830.79 3429.2 3836.05 3431.38 3839.92 3435.25C3843.8 3439.13 3845.97 3444.38 3845.97 3449.86C3845.97 3455.34 3843.8 3460.6 3839.92 3464.47C3836.05 3468.35 3830.79 3470.53 3825.31 3470.53C3819.83 3470.53 3814.57 3468.35 3810.7 3464.47C3806.82 3460.6 3804.65 3455.34 3804.65 3449.86C3804.65 3444.38 3806.82 3439.13 3810.7 3435.25C3814.57 3431.38 3819.83 3429.2 3825.31 3429.2Z" fill="#C7C7C7"/>
<path d="M2767.12 1340.96L2833.7 1353.29L2848.56 1423.38L2863.42 1353.29L2930.01 1340.96L2863.67 1324.77L2848.56 1258.43L2833.34 1324.77L2767.12 1340.96Z" fill="#C7C7C7"/>
<path d="M3020.76 733.501L3057.98 740.389L3066.32 779.541L3074.65 740.389L3111.75 733.501L3074.77 724.438L3066.32 687.34L3057.86 724.438L3020.76 733.501Z" fill="#C7C7C7"/>
<path d="M765.401 1740.1C768.253 1740.1 770.988 1741.23 773.005 1743.25C775.022 1745.26 776.155 1748 776.155 1750.85C776.155 1753.7 775.022 1756.44 773.005 1758.46C770.988 1760.47 768.253 1761.61 765.401 1761.61C762.548 1761.61 759.813 1760.47 757.796 1758.46C755.779 1756.44 754.646 1753.7 754.646 1750.85C754.646 1748 755.779 1745.26 757.796 1743.25C759.813 1741.23 762.548 1740.1 765.401 1740.1Z" fill="#C7C7C7"/>
<path d="M934.818 4600.38C937.49 4600.67 939.962 4601.93 941.758 4603.92C943.555 4605.92 944.549 4608.51 944.549 4611.2C944.549 4613.88 943.555 4616.48 941.758 4618.47C939.962 4620.47 937.49 4621.73 934.818 4622.01C932.147 4621.73 929.675 4620.47 927.878 4618.47C926.082 4616.48 925.087 4613.88 925.087 4611.2C925.087 4608.51 926.082 4605.92 927.878 4603.92C929.675 4601.93 932.147 4600.67 934.818 4600.38Z" fill="#C7C7C7"/>
<path d="M642.748 5135.7C645.419 5135.99 647.891 5137.25 649.688 5139.24C651.485 5141.24 652.479 5143.83 652.479 5146.52C652.479 5149.2 651.485 5151.8 649.688 5153.79C647.891 5155.79 645.419 5157.05 642.748 5157.33C640.077 5157.05 637.605 5155.79 635.808 5153.79C634.011 5151.8 633.017 5149.2 633.017 5146.52C633.017 5143.83 634.011 5141.24 635.808 5139.24C637.605 5137.25 640.077 5135.99 642.748 5135.7Z" fill="#C7C7C7"/>
<path d="M1195.11 2644.22C1197.78 2644.51 1200.25 2645.77 1202.05 2647.76C1203.84 2649.76 1204.84 2652.35 1204.84 2655.04C1204.84 2657.72 1203.84 2660.32 1202.05 2662.31C1200.25 2664.31 1197.78 2665.57 1195.11 2665.85C1192.44 2665.57 1189.96 2664.31 1188.17 2662.31C1186.37 2660.32 1185.38 2657.72 1185.38 2655.04C1185.38 2652.35 1186.37 2649.76 1188.17 2647.76C1189.96 2645.77 1192.44 2644.51 1195.11 2644.22Z" fill="#C7C7C7"/>
<path d="M642.748 782.684C645.419 782.966 647.891 784.228 649.688 786.225C651.485 788.221 652.479 790.813 652.479 793.499C652.479 796.185 651.485 798.776 649.688 800.773C647.891 802.77 645.419 804.031 642.748 804.314C640.077 804.031 637.605 802.77 635.808 800.773C634.011 798.776 633.017 796.185 633.017 793.499C633.017 790.813 634.011 788.221 635.808 786.225C637.605 784.228 640.077 782.966 642.748 782.684Z" fill="#C7C7C7"/>
<path d="M1621.79 4086.21C1623.66 4086.44 1625.38 4087.35 1626.63 4088.76C1627.87 4090.18 1628.56 4092 1628.56 4093.88C1628.56 4095.76 1627.87 4097.58 1626.63 4099C1625.38 4100.41 1623.66 4101.32 1621.79 4101.55C1619.92 4101.32 1618.21 4100.41 1616.96 4099C1615.71 4097.58 1615.02 4095.76 1615.02 4093.88C1615.02 4092 1615.71 4090.18 1616.96 4088.76C1618.21 4087.35 1619.92 4086.44 1621.79 4086.21Z" fill="#C7C7C7"/>
<path d="M3231.14 5064.16C3233.16 5064.16 3235.1 5064.97 3236.52 5066.39C3237.95 5067.82 3238.75 5069.76 3238.75 5071.78C3238.75 5073.8 3237.95 5075.73 3236.52 5077.16C3235.1 5078.59 3233.16 5079.39 3231.14 5079.39C3229.12 5079.39 3227.19 5078.59 3225.76 5077.16C3224.33 5075.73 3223.53 5073.8 3223.53 5071.78C3223.53 5069.76 3224.33 5067.82 3225.76 5066.39C3227.19 5064.97 3229.12 5064.16 3231.14 5064.16Z" fill="#C7C7C7"/>
<path d="M4364.14 1573.7C4366.01 1573.93 4367.73 1574.84 4368.97 1576.26C4370.22 1577.67 4370.91 1579.49 4370.91 1581.37C4370.91 1583.26 4370.22 1585.08 4368.97 1586.49C4367.73 1587.9 4366.01 1588.81 4364.14 1589.05C4362.27 1588.81 4360.55 1587.9 4359.3 1586.49C4358.06 1585.08 4357.37 1583.26 4357.37 1581.37C4357.37 1579.49 4358.06 1577.67 4359.3 1576.26C4360.55 1574.84 4362.27 1573.93 4364.14 1573.7Z" fill="#C7C7C7"/>
<path d="M2985.96 1106.54C2987.98 1106.54 2989.91 1107.34 2991.34 1108.76C2992.77 1110.19 2993.57 1112.13 2993.57 1114.15C2993.57 1116.17 2992.77 1118.1 2991.34 1119.53C2989.91 1120.96 2987.98 1121.76 2985.96 1121.76C2983.94 1121.76 2982 1120.96 2980.57 1119.53C2979.15 1118.1 2978.34 1116.17 2978.34 1114.15C2978.34 1112.13 2979.15 1110.19 2980.57 1108.76C2982 1107.34 2983.94 1106.54 2985.96 1106.54Z" fill="#C7C7C7"/>
<path d="M2528.34 3815.16C2533.82 3815.16 2539.07 3817.34 2542.95 3821.22C2546.82 3825.09 2549 3830.35 2549 3835.83C2549 3841.31 2546.82 3846.56 2542.95 3850.44C2539.07 3854.31 2533.82 3856.49 2528.34 3856.49C2522.85 3856.49 2517.6 3854.31 2513.72 3850.44C2509.85 3846.56 2507.67 3841.31 2507.67 3835.83C2507.67 3830.35 2509.85 3825.09 2513.72 3821.22C2517.6 3817.34 2522.85 3815.16 2528.34 3815.16Z" fill="#C7C7C7"/>
<path d="M5251.59 2253.06C5256.81 2253.46 5261.69 2255.82 5265.25 2259.66C5268.81 2263.5 5270.79 2268.55 5270.79 2273.79C5270.79 2279.02 5268.81 2284.07 5265.25 2287.91C5261.69 2291.75 5256.81 2294.11 5251.59 2294.51C5246.36 2294.11 5241.48 2291.75 5237.92 2287.91C5234.36 2284.07 5232.38 2279.02 5232.38 2273.79C5232.38 2268.55 5234.36 2263.5 5237.92 2259.66C5241.48 2255.82 5246.36 2253.46 5251.59 2253.06Z" fill="#C7C7C7"/>
<path d="M1020.74 4065.54C1026.22 4065.54 1031.47 4067.72 1035.35 4071.6C1039.22 4075.47 1041.4 4080.73 1041.4 4086.21C1041.4 4091.69 1039.22 4096.94 1035.35 4100.82C1031.47 4104.69 1026.22 4106.87 1020.74 4106.87C1015.26 4106.87 1010 4104.69 1006.12 4100.82C1002.25 4096.94 1000.07 4091.69 1000.07 4086.21C1000.07 4080.73 1002.25 4075.47 1006.12 4071.6C1010 4067.72 1015.26 4065.54 1020.74 4065.54Z" fill="#C7C7C7"/>
<path d="M2757.45 3269.93L2794.67 3276.82L2803 3315.97L2811.34 3276.82L2848.56 3269.93L2811.46 3260.87L2803 3223.77L2794.55 3260.87L2757.45 3269.93Z" fill="#C7C7C7"/>
<path d="M3547.86 5146.22L3585.08 5153.1L3593.42 5192.26L3601.64 5153.1L3638.85 5146.09L3601.88 5137.15L3593.42 5100.05L3584.84 5137.15L3547.86 5146.22Z" fill="#C7C7C7"/>
<path d="M3712.69 4662.98C3715.36 4663.26 3717.83 4664.52 3719.63 4666.52C3721.42 4668.51 3722.42 4671.11 3722.42 4673.79C3722.42 4676.48 3721.42 4679.07 3719.63 4681.07C3717.83 4683.06 3715.36 4684.32 3712.69 4684.61C3710.02 4684.32 3707.54 4683.06 3705.75 4681.07C3703.95 4679.07 3702.96 4676.48 3702.96 4673.79C3702.96 4671.11 3703.95 4668.51 3705.75 4666.52C3707.54 4664.52 3710.02 4663.26 3712.69 4662.98Z" fill="#C7C7C7"/>
<path d="M4132.73 4376.1C4135.4 4376.38 4137.87 4377.65 4139.67 4379.64C4141.46 4381.64 4142.46 4384.23 4142.46 4386.92C4142.46 4389.6 4141.46 4392.19 4139.67 4394.19C4137.87 4396.19 4135.4 4397.45 4132.73 4397.73C4130.06 4397.45 4127.58 4396.19 4125.79 4394.19C4123.99 4392.19 4123 4389.6 4123 4386.92C4123 4384.23 4123.99 4381.64 4125.79 4379.64C4127.58 4377.65 4130.06 4376.38 4132.73 4376.1Z" fill="#C7C7C7"/>
<path d="M2803 4871.43L2840.22 4878.31L2848.56 4917.59L2856.9 4878.31L2894.12 4871.43L2857.02 4862.36L2848.56 4825.27L2840.1 4862.36L2803 4871.43Z" fill="#C7C7C7"/>
<path d="M4334.53 1397.88C4337.2 1398.16 4339.67 1399.42 4341.47 1401.42C4343.27 1403.42 4344.26 1406.01 4344.26 1408.69C4344.26 1411.38 4343.27 1413.97 4341.47 1415.97C4339.67 1417.97 4337.2 1419.23 4334.53 1419.51C4331.86 1419.23 4329.39 1417.97 4327.59 1415.97C4325.79 1413.97 4324.8 1411.38 4324.8 1408.69C4324.8 1406.01 4325.79 1403.42 4327.59 1401.42C4329.39 1399.42 4331.86 1398.16 4334.53 1397.88Z" fill="#C7C7C7"/>
<path d="M4593.97 4410.66C4595.99 4410.66 4597.93 4411.46 4599.36 4412.89C4600.79 4414.32 4601.59 4416.25 4601.59 4418.27C4601.59 4420.29 4600.79 4422.23 4599.36 4423.66C4597.93 4425.08 4595.99 4425.89 4593.97 4425.89C4591.96 4425.89 4590.02 4425.08 4588.59 4423.66C4587.16 4422.23 4586.36 4420.29 4586.36 4418.27C4586.36 4416.25 4587.16 4414.32 4588.59 4412.89C4590.02 4411.46 4591.96 4410.66 4593.97 4410.66Z" fill="#C7C7C7"/>
<path d="M1347.61 3113.08L1384.83 3119.97L1393.04 3159.12L1401.38 3119.97L1438.6 3113.08L1401.62 3104.02L1393.04 3066.92L1384.58 3104.02L1347.61 3113.08Z" fill="#C7C7C7"/>
<path d="M917.417 3706.53C920.27 3706.53 923.005 3707.66 925.022 3709.68C927.039 3711.69 928.172 3714.43 928.172 3717.28C928.172 3720.13 927.039 3722.87 925.022 3724.89C923.005 3726.9 920.27 3728.04 917.417 3728.04C914.565 3728.04 911.829 3726.9 909.812 3724.89C907.796 3722.87 906.662 3720.13 906.662 3717.28C906.662 3714.43 907.796 3711.69 909.812 3709.68C911.829 3707.66 914.565 3706.53 917.417 3706.53Z" fill="#C7C7C7"/>
<path d="M2404.72 2912.25C2407.57 2912.25 2410.3 2913.38 2412.32 2915.4C2414.34 2917.41 2415.47 2920.15 2415.47 2923C2415.47 2925.85 2414.34 2928.59 2412.32 2930.61C2410.3 2932.62 2407.57 2933.76 2404.72 2933.76C2401.86 2933.76 2399.13 2932.62 2397.11 2930.61C2395.09 2928.59 2393.96 2925.85 2393.96 2923C2393.96 2920.15 2395.09 2917.41 2397.11 2915.4C2399.13 2913.38 2401.86 2912.25 2404.72 2912.25Z" fill="#C7C7C7"/>
<path d="M1141.45 1822.63C1143.32 1822.87 1145.04 1823.78 1146.29 1825.19C1147.54 1826.6 1148.22 1828.42 1148.22 1830.31C1148.22 1832.19 1147.54 1834.01 1146.29 1835.42C1145.04 1836.84 1143.32 1837.74 1141.45 1837.98C1139.59 1837.74 1137.87 1836.84 1136.62 1835.42C1135.37 1834.01 1134.69 1832.19 1134.69 1830.31C1134.69 1828.42 1135.37 1826.6 1136.62 1825.19C1137.87 1823.78 1139.59 1822.87 1141.45 1822.63Z" fill="#C7C7C7"/>
<path d="M1043.7 1752.18C1049.18 1752.18 1054.43 1754.36 1058.31 1758.24C1062.18 1762.11 1064.36 1767.37 1064.36 1772.85C1064.36 1778.33 1062.18 1783.58 1058.31 1787.46C1054.43 1791.33 1049.18 1793.51 1043.7 1793.51C1038.21 1793.51 1032.96 1791.33 1029.08 1787.46C1025.21 1783.58 1023.03 1778.33 1023.03 1772.85C1023.03 1767.37 1025.21 1762.11 1029.08 1758.24C1032.96 1754.36 1038.21 1752.18 1043.7 1752.18Z" fill="#C7C7C7"/>
<path d="M5271.52 839.719C5277 839.719 5282.26 841.896 5286.14 845.771C5290.01 849.646 5292.19 854.902 5292.19 860.382C5292.19 865.863 5290.01 871.119 5286.14 874.994C5282.26 878.869 5277 881.046 5271.52 881.046C5266.04 881.046 5260.79 878.869 5256.91 874.994C5253.04 871.119 5250.86 865.863 5250.86 860.382C5250.86 854.902 5253.04 849.646 5256.91 845.771C5260.79 841.896 5266.04 839.719 5271.52 839.719Z" fill="#C7C7C7"/>
<path d="M4752.84 5008.44C4911.02 4859.17 4918.25 4609.92 4768.97 4451.73C4619.69 4293.55 4370.45 4286.32 4212.26 4435.6C4054.08 4584.87 4046.85 4834.12 4196.13 4992.31C4345.4 5150.49 4594.65 5157.72 4752.84 5008.44Z" fill="#455A64"/>
<path d="M4116.05 4866.83C4150.08 4832.14 4189.35 4803.03 4232.42 4780.55C4307.46 4739.95 4516.03 4685.45 4610.05 4628.05C4742.25 4547.45 4753.36 4470.96 4749.5 4432.53C4712.15 4398.3 4668.59 4371.55 4621.16 4353.74C4614.52 4394.22 4587.57 4520.98 4365.35 4619.59C4250.55 4670.71 4135.75 4651.98 4096.11 4645.69C4081.34 4719.79 4088.26 4796.57 4116.05 4866.83Z" fill="#37474F"/>
<path d="M4293.57 5067.91C4372.86 5111.13 4464.57 5125.84 4553.4 5109.58C4642.22 5093.33 4722.79 5047.1 4781.64 4978.61C4758.46 4968.25 4734.12 4960.75 4709.14 4956.25C4601.47 4939.09 4489.33 4999.03 4448.85 5026.22C4403.74 5058.24 4348.65 5073.03 4293.57 5067.91Z" fill="#37474F"/>
<path d="M4144.09 4923.87L4149.77 4933.05L4155.08 4941.15C4159.19 4947.31 4163.3 4953.23 4167.17 4959.15C4171.03 4965.08 4175.26 4969.55 4179.25 4974.5L4183.96 4980.06L4189.4 4986.22C4191.21 4988.28 4193.03 4990.33 4194.96 4992.26L4201.73 4999.27L4208.49 5006.04L4214.54 5011.72C4219.01 5015.83 4223.6 5019.82 4228.19 5023.8C4253.21 5029.24 4285.71 5023.8 4331.99 5000.6C4401.11 4966.89 4472.53 4893.42 4606.3 4832.76C4688.97 4796.05 4780.16 4782.84 4869.85 4794.57C4884.83 4714.62 4874.61 4631.98 4840.61 4558.09C4815.47 4559.17 4735.6 4577.18 4574.76 4733.06C4524.89 4782.87 4470.02 4827.41 4411.02 4865.99C4270.24 4954.8 4183.36 4938.49 4146.5 4923.87H4144.09Z" fill="#37474F"/>
<path d="M4501.17 4495.25C4509.63 4510.59 4534.52 4513.13 4556.88 4500.93C4579.23 4488.72 4590.35 4466.24 4582.01 4450.9C4573.67 4435.55 4548.66 4433.13 4526.3 4445.34C4503.95 4457.54 4492.83 4479.29 4501.17 4495.25Z" fill="#263238"/>
<path d="M4614.76 4512.53C4619.47 4521.11 4634.21 4522.19 4647.63 4514.82C4661.04 4507.45 4667.93 4494.52 4663.22 4485.94C4658.5 4477.36 4643.76 4476.15 4630.35 4483.53C4616.93 4490.9 4610.05 4503.83 4614.76 4512.53Z" fill="#263238"/>
<path d="M4354.47 5021.87C4361.72 5035.04 4383.35 5036.97 4402.81 5026.22C4422.26 5015.46 4432.29 4996.25 4425.16 4983.08C4418.03 4969.91 4396.28 4968.1 4376.82 4978.73C4357.37 4989.36 4347.34 5008.82 4354.47 5021.87Z" fill="#263238"/>
<path d="M4427.94 5028.88C4428.87 5032.89 4431.04 5036.52 4434.14 5039.24C4437.23 5041.96 4441.11 5043.64 4445.21 5044.04C4449.31 5044.44 4453.44 5043.55 4457 5041.48C4460.57 5039.41 4463.4 5036.28 4465.09 5032.52C4466.78 5028.76 4467.25 5024.56 4466.43 5020.52C4465.62 5016.48 4463.55 5012.8 4460.53 5010C4457.51 5007.19 4453.68 5005.41 4449.59 5004.89C4445.5 5004.38 4441.35 5005.16 4437.73 5007.13C4433.61 5008.8 4430.3 5011.99 4428.48 5016.04C4426.66 5020.09 4426.46 5024.69 4427.94 5028.88Z" fill="#263238"/>
<path d="M4436.28 4991.41C4438.05 4993.53 4440.55 4994.89 4443.29 4995.23C4446.03 4995.57 4448.79 4994.85 4451.02 4993.23C4456.94 4989.96 4459.84 4983.92 4457.55 4979.81C4455.76 4977.69 4453.23 4976.32 4450.47 4975.99C4447.71 4975.65 4444.93 4976.37 4442.68 4978C4436.88 4981.26 4433.98 4987.31 4436.28 4991.41Z" fill="#263238"/>
<path d="M4680.98 4968.1C4687.38 4980.18 4705.15 4982.36 4720.86 4973.78C4736.57 4965.2 4743.94 4948.76 4737.53 4937.52C4731.13 4926.29 4713.36 4923.26 4697.65 4931.84C4681.95 4940.42 4674.57 4956.37 4680.98 4968.1Z" fill="#263238"/>
<path d="M4666.6 4915.53C4667.79 4918.45 4669.84 4920.95 4672.47 4922.68C4675.11 4924.41 4678.21 4925.31 4681.37 4925.24C4684.53 4925.17 4687.59 4924.15 4690.15 4922.3C4692.71 4920.46 4694.65 4917.88 4695.71 4914.91C4696.78 4911.94 4696.92 4908.71 4696.11 4905.66C4695.3 4902.61 4693.58 4899.88 4691.19 4897.82C4688.79 4895.77 4685.83 4894.49 4682.69 4894.15C4679.55 4893.82 4676.38 4894.45 4673.61 4895.95C4670.09 4897.63 4667.38 4900.63 4666.06 4904.29C4664.75 4907.96 4664.94 4912 4666.6 4915.53Z" fill="#263238"/>
<path d="M4167.65 4959.15C4411.75 4907.47 4649.42 4829.1 4876.38 4725.45C5052.8 4642.55 5161.68 4563.16 5146.94 4518.33C5132.2 4473.5 4999.88 4472.89 4813.42 4508.78C4818.49 4516.64 4823.21 4524.61 4827.8 4532.95C4829.49 4536.09 4831.06 4539.23 4832.75 4542.25C4931.96 4529.57 4997.7 4535.37 5006.64 4562.68C5015.58 4589.99 4964.59 4635.18 4874.56 4684.48C4760.78 4744.23 4641.93 4793.81 4519.42 4832.63C4397.48 4874.02 4272.12 4904.55 4144.81 4923.87C4043.43 4937.28 3975.64 4931.6 3966.94 4903.93C3958.23 4876.26 4007.42 4833.24 4094.3 4784.78C4092.13 4771.58 4090.68 4758.26 4089.95 4744.9C3913.77 4827.56 3803.32 4909.73 3818.54 4954.44C3833.77 4999.15 3971.65 4998.67 4167.65 4959.15Z" fill="#263238"/>
<path d="M4189.89 4986.1C4307.56 4960.88 4423.84 4929.58 4538.27 4892.33C4652.26 4855.85 4764.31 4813.54 4873.96 4765.57C5119.02 4656.81 5275.51 4546 5255.09 4482.44C5234.67 4418.88 5046.28 4420.21 4788.16 4473.98C4791.91 4478.69 4795.66 4483.53 4799.28 4488.48C5016.07 4446.91 5171.47 4449.21 5188.99 4503.71C5206.51 4558.21 5079.39 4652.82 4875.53 4746.84C4764.22 4797.32 4650.08 4841.3 4533.68 4878.55C4416.89 4916.58 4297.99 4947.73 4177.56 4971.84C3958.24 5014.38 3800.66 5012.32 3783.02 4957.34C3765.37 4902.36 3889.36 4810.76 4088.5 4718.08C4088.5 4711.91 4088.5 4705.99 4089.23 4699.59C3849.24 4806.53 3696.74 4915.89 3716.92 4978.73C3737.1 5041.57 3928.75 5040.96 4189.89 4986.1Z" fill="#37474F"/>
<path d="M2851.32 2870.61C2972.77 2829.15 3037.61 2697.07 2996.15 2575.62C2954.69 2454.16 2822.61 2389.32 2701.16 2430.78C2579.7 2472.25 2514.86 2604.32 2556.32 2725.78C2597.79 2847.23 2729.86 2912.07 2851.32 2870.61Z" fill="#EBEBEB"/>
<path d="M2998.77 2718.05C2977.12 2699.28 2952.65 2684.03 2926.26 2672.86C2880.22 2652.56 2754.91 2630.32 2696.67 2600.96C2615.1 2559.87 2604.95 2515.52 2605.43 2492.2C2625.72 2470.27 2650.05 2452.46 2677.09 2439.76C2682.89 2463.2 2704.76 2536.43 2840.22 2584.77C2910.19 2608.93 2977.13 2592.98 2999.85 2587.42C3012.06 2630.17 3011.68 2675.52 2998.77 2718.05Z" fill="#DBDBDB"/>
<path d="M2903.91 2844.82C2859.35 2874.08 2806.09 2887.14 2753.05 2881.82C2700.01 2876.5 2650.41 2853.11 2612.56 2815.57C2625.72 2808.36 2639.73 2802.8 2654.25 2799.02C2716.72 2783.79 2785.48 2813.64 2810.62 2827.78C2838.68 2844.42 2871.77 2850.46 2903.91 2844.82Z" fill="#DBDBDB"/>
<path d="M2984.75 2752.98L2981.85 2758.54C2981 2760.35 2980.04 2761.92 2979.07 2763.61C2976.97 2767.48 2974.8 2771.23 2972.54 2774.85C2970.49 2778.11 2968.31 2781.25 2966.14 2784.4L2963.6 2787.9L2960.58 2791.41L2957.56 2795.27C2956.43 2796.72 2955.22 2798.17 2953.93 2799.62C2952.64 2801.07 2951.44 2802.52 2950.31 2803.97L2946.92 2807.6C2944.51 2810.26 2942.09 2812.79 2939.55 2815.33C2925.17 2819.8 2905.72 2817.87 2877.44 2806.63C2835.15 2790.08 2789.71 2750.2 2708.27 2720.96C2658.04 2703.36 2603.96 2699.89 2551.9 2710.93C2539.3 2664.63 2541.41 2615.56 2557.94 2570.51C2572.68 2569.91 2620.54 2576.67 2722.28 2660.78C2754.01 2687.6 2788.39 2711.12 2824.88 2730.99C2912 2776.54 2962.27 2763.01 2983.3 2752.49H2984.75V2752.98Z" fill="#DBDBDB"/>
<path d="M2764.09 2840.35C2768.2 2830.92 2782.7 2828.26 2796.48 2834.18C2810.25 2840.1 2817.99 2852.67 2813.88 2862.1C2809.77 2871.52 2795.27 2874.18 2781.49 2868.38C2767.72 2862.58 2759.99 2849.89 2764.09 2840.35Z" fill="#C7C7C7"/>
<path d="M2829.83 2823.79C2832.13 2818.47 2840.71 2817.14 2849.04 2820.77C2857.38 2824.39 2862.1 2831.52 2859.8 2836.84C2857.5 2842.15 2848.8 2843.6 2840.59 2839.98C2832.37 2836.35 2827.66 2829.22 2829.83 2823.79Z" fill="#C7C7C7"/>
<path d="M2649.66 2538.37C2653.16 2530.39 2665.73 2527.97 2677.81 2533.29C2689.9 2538.61 2696.79 2549.36 2693.16 2557.46C2689.54 2565.55 2677.09 2567.85 2665.01 2562.53C2652.92 2557.22 2646.4 2546.46 2649.66 2538.37Z" fill="#C7C7C7"/>
<path d="M2692.44 2530.39C2693.83 2528.17 2696.04 2526.58 2698.6 2525.97C2701.15 2525.36 2703.84 2525.78 2706.09 2527.13C2708.56 2527.88 2710.65 2529.56 2711.93 2531.8C2713.21 2534.05 2713.59 2536.7 2712.98 2539.21C2711.26 2540.9 2709.08 2542.03 2706.71 2542.47C2704.34 2542.9 2701.9 2542.62 2699.69 2541.66C2697.49 2540.7 2695.62 2539.11 2694.32 2537.07C2693.03 2535.04 2692.37 2532.67 2692.44 2530.27V2530.39Z" fill="#C7C7C7"/>
<path d="M2699.32 2551.9C2700.26 2550.56 2701.66 2549.63 2703.26 2549.29C2704.85 2548.96 2706.51 2549.24 2707.9 2550.09C2711.53 2551.66 2713.46 2555.04 2712.37 2557.58C2711.48 2558.96 2710.08 2559.94 2708.48 2560.3C2706.88 2560.66 2705.19 2560.38 2703.8 2559.51C2702.22 2559.06 2700.87 2558.02 2700.04 2556.6C2699.21 2555.18 2698.95 2553.5 2699.32 2551.9Z" fill="#C7C7C7"/>
<path d="M2844.33 2552.5C2844.83 2548.38 2846.6 2544.52 2849.41 2541.46C2852.22 2538.4 2855.91 2536.3 2859.98 2535.46C2864.04 2534.61 2868.27 2535.07 2872.06 2536.75C2875.85 2538.44 2879.02 2541.27 2881.12 2544.86C2883.21 2548.44 2884.13 2552.59 2883.74 2556.72C2883.35 2560.86 2881.67 2564.76 2878.94 2567.89C2876.21 2571.02 2872.57 2573.21 2868.53 2574.16C2864.49 2575.1 2860.25 2574.76 2856.42 2573.17C2852.11 2571.97 2848.43 2569.15 2846.18 2565.29C2843.92 2561.43 2843.26 2556.84 2844.33 2552.5Z" fill="#C7C7C7"/>
<path d="M2838.77 2584.16C2839.83 2582.06 2841.65 2580.44 2843.87 2579.65C2846.08 2578.85 2848.52 2578.93 2850.67 2579.88C2852.83 2580.82 2854.54 2582.56 2855.45 2584.73C2856.36 2586.9 2856.4 2589.33 2855.57 2591.54C2854.51 2593.64 2852.69 2595.26 2850.48 2596.05C2848.26 2596.85 2845.83 2596.77 2843.67 2595.82C2841.52 2594.88 2839.81 2593.14 2838.9 2590.97C2837.98 2588.8 2837.94 2586.37 2838.77 2584.16Z" fill="#C7C7C7"/>
<path d="M1231.33 1250.45C1350.47 1202.74 1408.38 1067.49 1360.68 948.346C1312.98 829.203 1177.73 771.289 1058.58 818.991C939.441 866.693 881.527 1001.95 929.228 1121.09C976.93 1240.23 1112.18 1298.15 1231.33 1250.45Z" fill="#9B5DE5"/>
<path opacity="0.1" d="M1231.33 1250.45C1350.47 1202.74 1408.38 1067.49 1360.68 948.346C1312.98 829.203 1177.73 771.289 1058.58 818.991C939.441 866.693 881.527 1001.95 929.228 1121.09C976.93 1240.23 1112.18 1298.15 1231.33 1250.45Z" fill="black"/>
<g opacity="0.1">
<path d="M1367.43 1102.3C1345.76 1083.55 1321.3 1068.3 1294.92 1057.11C1248.76 1036.81 1123.81 1015.06 1065.45 985.33C983.879 944.123 973.729 899.775 974.212 876.574C994.516 854.608 1018.89 836.797 1045.99 824.129C1051.79 847.572 1073.54 920.801 1209 969.137C1278.97 993.305 1345.92 977.233 1368.63 971.675C1380.8 1014.43 1380.38 1059.78 1367.43 1102.3Z" fill="black"/>
<path d="M1272.45 1229.07C1227.86 1258.27 1174.6 1271.29 1121.58 1265.94C1068.55 1260.6 1018.96 1237.22 981.1 1199.7C994.273 1192.51 1008.27 1186.95 1022.79 1183.15C1085.26 1167.92 1154.14 1197.89 1179.88 1211.91C1207.72 1228.45 1240.53 1234.53 1272.45 1229.07Z" fill="black"/>
<path d="M1353.41 1137.22C1352.54 1139.17 1351.57 1141.06 1350.51 1142.9C1349.66 1144.6 1348.82 1146.29 1347.85 1147.98C1345.67 1151.72 1343.5 1155.47 1341.2 1159.1C1338.91 1162.72 1337.09 1165.62 1334.8 1168.76L1332.26 1172.15C1331.36 1173.49 1330.39 1174.78 1329.36 1176.01L1326.46 1179.88L1322.84 1184.35L1319.09 1188.58L1315.83 1192.33C1313.41 1194.99 1310.87 1197.52 1308.33 1199.94C1293.83 1204.29 1274.5 1202.36 1246.1 1191.24C1203.93 1174.68 1158.37 1134.81 1076.93 1105.44C1026.73 1087.91 972.702 1084.44 920.68 1095.41C907.964 1049.01 910.034 999.803 926.601 954.635C941.464 954.031 989.196 960.798 1091.06 1044.9C1122.72 1071.82 1157.11 1095.35 1193.66 1115.11C1280.9 1161.27 1331.05 1147.98 1352.08 1137.1H1353.41V1137.22Z" fill="black"/>
</g>
<g opacity="0.1">
<path d="M1132.63 1224.72C1136.74 1215.17 1151.24 1212.63 1165.02 1218.43C1178.79 1224.23 1186.65 1236.92 1182.54 1246.35C1178.43 1255.77 1163.81 1258.43 1150.16 1252.63C1136.5 1246.83 1128.52 1234.14 1132.63 1224.72Z" fill="black"/>
<path d="M1198.49 1208.4C1200.79 1203.08 1209.37 1201.63 1217.58 1205.26C1225.8 1208.88 1230.63 1216.13 1228.34 1221.45C1226.04 1226.77 1217.46 1228.1 1209.12 1224.59C1200.79 1221.09 1196.32 1213.48 1198.49 1208.4Z" fill="black"/>
<path d="M1018.2 922.736C1021.7 914.639 1034.27 912.343 1046.35 917.54C1058.44 922.736 1065.33 933.611 1061.82 941.708C1058.32 949.804 1045.63 952.1 1033.54 946.783C1021.46 941.466 1015.06 930.469 1018.2 922.736Z" fill="black"/>
<path d="M1060.98 914.639C1062.39 912.441 1064.6 910.874 1067.15 910.266C1069.69 909.658 1072.37 910.056 1074.63 911.376C1075.98 911.563 1077.26 912.059 1078.39 912.825C1079.51 913.591 1080.44 914.607 1081.11 915.794C1081.78 916.98 1082.16 918.304 1082.23 919.663C1082.3 921.022 1082.05 922.379 1081.51 923.627C1080.97 924.875 1080.15 925.981 1079.11 926.858C1078.07 927.735 1076.84 928.36 1075.52 928.683C1074.19 929.006 1072.82 929.019 1071.49 928.721C1070.16 928.423 1068.92 927.822 1067.86 926.965C1065.36 926.18 1063.25 924.465 1061.97 922.173C1060.68 919.881 1060.33 917.185 1060.98 914.639Z" fill="black"/>
<path d="M1067.86 936.27C1068.78 934.914 1070.17 933.958 1071.77 933.598C1073.36 933.239 1075.04 933.503 1076.44 934.337C1080.07 936.029 1082.12 939.291 1081.03 941.95C1080.09 943.264 1078.68 944.177 1077.09 944.512C1075.51 944.847 1073.85 944.58 1072.45 943.762C1068.83 942.554 1066.78 938.808 1067.86 936.27Z" fill="black"/>
<path d="M1212.99 936.753C1213.52 932.675 1215.32 928.866 1218.13 925.86C1220.93 922.855 1224.61 920.802 1228.64 919.992C1232.67 919.181 1236.86 919.653 1240.61 921.341C1244.36 923.028 1247.48 925.847 1249.55 929.402C1251.62 932.957 1252.52 937.07 1252.13 941.164C1251.74 945.258 1250.08 949.128 1247.38 952.23C1244.68 955.333 1241.08 957.513 1237.08 958.465C1233.08 959.416 1228.88 959.092 1225.08 957.537C1220.74 956.347 1217.05 953.502 1214.79 949.615C1212.53 945.728 1211.88 941.11 1212.99 936.753Z" fill="black"/>
<path d="M1207.31 968.414C1208.37 966.311 1210.19 964.694 1212.41 963.896C1214.62 963.098 1217.06 963.18 1219.21 964.126C1221.37 965.071 1223.07 966.808 1223.99 968.978C1224.9 971.148 1224.94 973.584 1224.11 975.785C1223.05 977.888 1221.23 979.506 1219.02 980.304C1216.8 981.102 1214.37 981.019 1212.21 980.074C1210.06 979.128 1208.35 977.391 1207.44 975.222C1206.52 973.052 1206.48 970.615 1207.31 968.414Z" fill="black"/>
</g>
</svg>
