<svg width="3348" height="4616" viewBox="0 0 3348 4616" fill="none" xmlns="http://www.w3.org/2000/svg">
<path d="M1476.07 771.18C1467.49 760.908 970.352 530.346 520.102 873.894C106.225 1189.77 -37.4534 1783.46 17.5288 1797.72C84.8367 1815.12 269.239 1531.87 623.179 1376.1C748.732 1320.88 948.48 1376.1 948.48 1376.1L1476.07 771.18Z" fill="#9B5DE5"/>
<path opacity="0.1" d="M948.722 1375.99C889.447 1360.91 828.616 1352.8 767.462 1351.82C845.525 1188.44 991.258 883.683 1085.88 686.23C1308.58 688.285 1471.72 765.502 1476.67 770.818L948.722 1375.99Z" fill="black"/>
<path d="M2295 1737.05C2303.7 1747.21 2449.92 2275.4 2037.25 2663.29C1657.93 3020.01 1048.78 3064.6 1043.7 3008.05C1037.54 2938.81 1347.25 2803.23 1558.72 2479.5C1633.64 2364.7 1612.01 2158.54 1612.01 2158.54L2295 1737.05Z" fill="#9B5DE5"/>
<path opacity="0.1" d="M2314.21 2139.21L1605.37 2345.48C1614.84 2283.64 1616.91 2220.88 1611.53 2158.54L2294.52 1737.05C2299.96 1742.86 2350.47 1917.95 2314.21 2139.21Z" fill="black"/>
<path d="M1137.59 2382.7L652.06 1810.04C652.06 1810.04 905.824 1131.04 1507.12 674.994C1807.65 447.452 2159.66 277.189 2475.9 164.566C2911.53 8.44037 3275.98 -36.5121 3332.41 29.7082C3388.84 95.9285 3284.08 448.54 3059.55 852.991C2896.54 1145.54 2670.81 1465.53 2397.23 1724.85C1848.86 2243.98 1137.59 2382.7 1137.59 2382.7Z" fill="black"/>
<path d="M2317.11 1479.66C2251.81 1535.09 2171.53 1569.9 2086.44 1579.69C2001.34 1589.48 1915.26 1573.81 1839.07 1534.67C1762.88 1495.52 1700.02 1434.66 1658.43 1359.78C1616.85 1284.89 1598.4 1199.36 1605.44 1113.99C1612.48 1028.63 1644.68 947.266 1697.96 880.204C1751.25 813.142 1823.23 763.393 1904.8 737.249C1986.37 711.106 2073.86 709.745 2156.2 733.336C2238.54 756.928 2312.04 804.413 2367.38 869.784C2441.5 957.367 2477.83 1070.78 2468.4 1185.12C2458.98 1299.47 2404.57 1405.4 2317.11 1479.66Z" fill="#00C4B4"/>
<path d="M2340.8 1439.42C2275.48 1494.8 2195.21 1529.57 2110.13 1539.32C2025.06 1549.08 1939 1533.38 1862.84 1494.23C1786.68 1455.07 1723.85 1394.21 1682.28 1319.35C1640.71 1244.48 1622.27 1158.97 1629.3 1073.62C1636.33 988.279 1668.51 906.936 1721.77 839.88C1775.03 772.825 1846.98 723.069 1928.52 696.904C2010.06 670.74 2097.52 669.342 2179.86 692.887C2262.19 716.433 2335.69 763.864 2391.07 829.183C2465.29 916.786 2501.7 1030.28 2492.27 1144.71C2482.84 1259.14 2428.36 1365.15 2340.8 1439.42Z" fill="#9B5DE5"/>
<path d="M2255.12 1338.04C2209.86 1376.52 2154.2 1400.71 2095.18 1407.55C2036.17 1414.39 1976.45 1403.57 1923.59 1376.46C1870.72 1349.35 1827.09 1307.17 1798.2 1255.26C1769.32 1203.34 1756.49 1144.02 1761.32 1084.81C1766.16 1025.59 1788.46 969.147 1825.39 922.608C1862.31 876.07 1912.22 841.531 1968.78 823.363C2025.35 805.194 2086.03 804.213 2143.15 820.543C2200.27 836.873 2251.27 869.78 2289.68 915.1C2341.13 975.793 2366.38 1054.42 2359.9 1133.72C2353.42 1213.02 2315.74 1286.5 2255.12 1338.04Z" fill="white"/>
<path d="M2255.24 1338.04C2226.91 1362.17 2194.33 1380.81 2159.18 1393.02L1917.5 1373.33C1884.79 1355.6 1855.69 1331.91 1831.7 1303.48C1814.08 1282.84 1799.4 1259.87 1788.08 1235.21L2308.9 1277.62C2293.86 1300.12 2275.81 1320.45 2255.24 1338.04Z" fill="#EBEBEB"/>
<path d="M2315.66 950.507L1834.96 911.355C1844.64 900.228 1855.14 889.847 1866.38 880.299C1927.06 828.824 2005.7 803.549 2085.01 810.029C2164.31 816.51 2237.8 854.216 2289.32 914.859C2298.99 926.056 2307.8 937.973 2315.66 950.507Z" fill="#EBEBEB"/>
<path d="M2341.77 1215.39L1766.57 1168.38C1764.66 1159.57 1763.25 1150.65 1762.34 1141.68L2350.1 1190.01C2347.81 1198.23 2344.91 1206.81 2341.77 1215.39Z" fill="#EBEBEB"/>
<path d="M3059.56 852.989L2475.9 164.201C2911.53 8.43824 3275.98 -36.5142 3332.41 29.7061C3388.84 95.9264 3284.56 448.538 3059.56 852.989Z" fill="#9B5DE5"/>
<path d="M2647.49 222.69C2643.69 225.933 2639 227.974 2634.04 228.555C2629.07 229.136 2624.05 228.229 2619.6 225.951C2615.15 223.673 2611.47 220.125 2609.04 215.758C2606.61 211.39 2605.53 206.398 2605.93 201.416C2606.34 196.433 2608.22 191.683 2611.33 187.767C2614.43 183.852 2618.64 180.947 2623.4 179.421C2628.16 177.894 2633.26 177.815 2638.07 179.194C2642.87 180.572 2647.16 183.345 2650.39 187.163C2654.7 192.264 2656.82 198.867 2656.28 205.525C2655.73 212.184 2652.57 218.356 2647.49 222.69Z" fill="white"/>
<path d="M2751.29 345.22C2748.77 347.437 2745.83 349.129 2742.65 350.198C2739.47 351.266 2736.11 351.69 2732.76 351.443C2729.41 351.196 2726.15 350.285 2723.15 348.762C2720.16 347.239 2717.5 345.134 2715.34 342.572C2713.17 340.01 2711.53 337.041 2710.52 333.839C2709.51 330.636 2709.16 327.266 2709.47 323.923C2709.78 320.58 2710.75 317.333 2712.33 314.371C2713.91 311.409 2716.06 308.792 2718.67 306.672C2723.8 302.495 2730.36 300.497 2736.95 301.108C2743.53 301.719 2749.62 304.89 2753.89 309.939C2758.16 314.989 2760.29 321.513 2759.8 328.11C2759.31 334.708 2756.26 340.851 2751.29 345.22Z" fill="white"/>
<path d="M2855.09 467.63C2851.25 470.759 2846.58 472.689 2841.64 473.18C2836.71 473.671 2831.75 472.7 2827.36 470.389C2822.98 468.079 2819.38 464.53 2816.99 460.184C2814.61 455.839 2813.56 450.889 2813.97 445.951C2814.39 441.013 2816.24 436.306 2819.31 432.414C2822.38 428.523 2826.52 425.62 2831.23 424.066C2835.93 422.513 2840.99 422.378 2845.77 423.678C2850.55 424.978 2854.84 427.656 2858.12 431.378C2860.37 433.921 2862.09 436.896 2863.17 440.123C2864.24 443.35 2864.65 446.761 2864.37 450.15C2864.08 453.54 2863.12 456.836 2861.52 459.841C2859.93 462.845 2857.74 465.495 2855.09 467.63Z" fill="white"/>
<path d="M2959.02 590.162C2955.19 593.306 2950.51 595.253 2945.59 595.761C2940.66 596.269 2935.69 595.316 2931.29 593.02C2926.9 590.724 2923.28 587.187 2920.89 582.849C2918.49 578.511 2917.43 573.564 2917.82 568.624C2918.22 563.685 2920.06 558.97 2923.11 555.069C2926.17 551.167 2930.3 548.25 2935 546.681C2939.7 545.113 2944.76 544.962 2949.55 546.247C2954.33 547.533 2958.63 550.197 2961.92 553.91C2964.17 556.453 2965.88 559.424 2966.95 562.644C2968.03 565.864 2968.44 569.268 2968.17 572.652C2967.9 576.036 2966.95 579.331 2965.38 582.34C2963.8 585.348 2961.64 588.009 2959.02 590.162Z" fill="white"/>
<path d="M3063.42 712.694C3059.61 715.92 3054.93 717.946 3049.97 718.515C3045.01 719.083 3040 718.169 3035.56 715.888C3031.12 713.607 3027.45 710.061 3025.03 705.698C3022.6 701.335 3021.52 696.351 3021.92 691.376C3022.33 686.4 3024.2 681.656 3027.3 677.743C3030.4 673.829 3034.59 670.922 3039.34 669.389C3044.09 667.855 3049.19 667.764 3053.99 669.127C3058.79 670.49 3063.09 673.246 3066.32 677.046C3068.48 679.575 3070.11 682.504 3071.13 685.666C3072.15 688.828 3072.54 692.16 3072.27 695.471C3072 698.783 3071.08 702.009 3069.56 704.964C3068.04 707.919 3065.96 710.546 3063.42 712.694Z" fill="white"/>
<path d="M791.631 1796.63C786.501 1800.81 779.938 1802.8 773.351 1802.19C766.764 1801.58 760.68 1798.41 756.406 1793.36C752.132 1788.31 750.01 1781.79 750.496 1775.19C750.982 1768.59 754.037 1762.45 759.004 1758.08C761.525 1755.86 764.462 1754.17 767.644 1753.1C770.827 1752.03 774.19 1751.61 777.538 1751.86C780.886 1752.1 784.151 1753.02 787.143 1754.54C790.134 1756.06 792.792 1758.17 794.961 1760.73C797.13 1763.29 798.766 1766.26 799.774 1769.46C800.782 1772.66 801.141 1776.03 800.831 1779.38C800.521 1782.72 799.548 1785.97 797.968 1788.93C796.388 1791.89 794.234 1794.51 791.631 1796.63Z" fill="#00C4B4"/>
<path d="M896.036 1919.16C892.205 1922.31 887.534 1924.25 882.605 1924.76C877.676 1925.27 872.706 1924.32 868.314 1922.02C863.923 1919.72 860.304 1916.19 857.908 1911.85C855.512 1907.51 854.445 1902.56 854.84 1897.62C855.235 1892.68 857.075 1887.97 860.13 1884.07C863.185 1880.17 867.321 1877.25 872.021 1875.68C876.722 1874.11 881.78 1873.96 886.566 1875.25C891.352 1876.53 895.654 1879.2 898.936 1882.91C901.185 1885.45 902.898 1888.42 903.972 1891.64C905.047 1894.86 905.461 1898.27 905.19 1901.65C904.92 1905.04 903.969 1908.33 902.397 1911.34C900.824 1914.35 898.661 1917.01 896.036 1919.16Z" fill="#00C4B4"/>
<path d="M999.837 2041.94C996.028 2045.16 991.349 2047.19 986.389 2047.76C981.429 2048.33 976.412 2047.41 971.972 2045.13C967.531 2042.85 963.867 2039.3 961.44 2034.94C959.014 2030.58 957.935 2025.59 958.34 2020.62C958.745 2015.64 960.615 2010.9 963.715 2006.98C966.814 2003.07 971.004 2000.16 975.755 1998.63C980.506 1997.1 985.604 1997.01 990.407 1998.37C995.21 1999.73 999.5 2002.49 1002.74 2006.29C1004.89 2008.82 1006.53 2011.75 1007.55 2014.91C1008.57 2018.07 1008.95 2021.4 1008.68 2024.71C1008.42 2028.03 1007.5 2031.25 1005.98 2034.21C1004.46 2037.16 1002.37 2039.79 999.837 2041.94Z" fill="#00C4B4"/>
<path d="M1103.64 2164.1C1099.81 2167.25 1095.14 2169.19 1090.21 2169.7C1085.28 2170.21 1080.31 2169.26 1075.92 2166.96C1071.53 2164.67 1067.91 2161.13 1065.51 2156.79C1063.11 2152.45 1062.05 2147.51 1062.44 2142.57C1062.84 2137.63 1064.68 2132.91 1067.73 2129.01C1070.79 2125.11 1074.92 2122.19 1079.62 2120.62C1084.32 2119.05 1089.38 2118.9 1094.17 2120.19C1098.96 2121.47 1103.26 2124.14 1106.54 2127.85C1108.79 2130.39 1110.5 2133.37 1111.58 2136.59C1112.65 2139.81 1113.06 2143.21 1112.79 2146.59C1112.52 2149.98 1111.57 2153.27 1110 2156.28C1108.43 2159.29 1106.26 2161.95 1103.64 2164.1Z" fill="#00C4B4"/>
<path d="M1207.44 2286.51C1203.6 2289.64 1198.92 2291.57 1193.99 2292.06C1189.06 2292.55 1184.09 2291.58 1179.71 2289.27C1175.33 2286.96 1171.72 2283.41 1169.34 2279.07C1166.96 2274.72 1165.91 2269.77 1166.32 2264.83C1166.73 2259.9 1168.59 2255.19 1171.66 2251.3C1174.72 2247.41 1178.87 2244.5 1183.57 2242.95C1188.28 2241.4 1193.34 2241.26 1198.12 2242.56C1202.9 2243.86 1207.19 2246.54 1210.46 2250.26C1212.72 2252.8 1214.44 2255.78 1215.51 2259.01C1216.59 2262.23 1216.99 2265.64 1216.71 2269.03C1216.43 2272.42 1215.46 2275.72 1213.87 2278.72C1212.28 2281.73 1210.09 2284.38 1207.44 2286.51Z" fill="#00C4B4"/>
<path opacity="0.2" d="M3305.1 12.668C2968.92 36.836 2386.72 240.331 1774.18 720.79C1321.51 1075.7 991.257 1696.82 837.307 2028.52L652.06 1810.04C652.06 1810.04 905.824 1131.04 1507.12 674.992C1807.65 447.45 2159.66 277.187 2475.9 164.564C2866.33 24.5103 3199.49 -26.2425 3305.1 12.668Z" fill="white"/>
<path d="M920.688 2475.99L525.903 2010.27L679.491 1842.43L1111.37 2351.89L920.688 2475.99Z" fill="#9B5DE5"/>
<path opacity="0.1" d="M1111.37 2351.89L1018.45 2412.31L620.763 1906.59L679.491 1842.55L1111.37 2351.89Z" fill="black"/>
<path d="M3053.39 915.22L2872.98 903.136L2788.15 1074.97L2795.88 883.56L2631.78 807.672L2814.01 809.485L2896.9 647.922L2892.55 829.424L3053.39 915.22Z" fill="#FCFCFC"/>
<path d="M3009.04 248.788L2908.14 242.142L2860.77 338.21L2865.12 231.145L2773.41 188.73L2875.27 189.697L2921.56 99.4297L2919.14 200.935L3009.04 248.788Z" fill="#FCFCFC"/>
<path d="M2193.13 2297.27L2092.35 2290.5L2044.98 2386.57L2049.21 2279.63L1957.49 2237.21L2059.36 2238.18L2105.77 2147.91L2103.23 2249.42L2193.13 2297.27Z" fill="#FCFCFC"/>
<path d="M398.417 1406.07L297.516 1399.31L250.147 1495.37L254.497 1388.43L162.779 1346.02L264.647 1346.98L310.929 1256.71L308.512 1358.1L398.417 1406.07Z" fill="#FCFCFC"/>
<path opacity="0.6" d="M833.924 2372.07C650.852 2495.45 489.289 2652.9 371.349 2841.05C250.337 3030.15 181.967 3248.11 173.292 3472.44C170.392 3586.16 184.277 3699.68 214.498 3809.34C245.595 3921.04 292.644 4027.68 354.189 4125.94C417.212 4225.96 492.788 4317.5 579.073 4398.32C666.893 4480.47 762.945 4553.36 865.705 4615.83C754.869 4565.18 649.579 4503.18 551.521 4430.82C452.287 4357.27 362.936 4271.25 285.673 4174.88C125.514 3975.45 27.892 3733.12 5.08272 3478.36C-17.6352 3220.85 36.7427 2956.57 149.366 2720.82C261.988 2485.06 430.319 2275.64 629.221 2104.53L833.924 2372.07Z" fill="#9B5DE5"/>
<path d="M520.827 2652.78L448.807 2666.07L432.735 2741.96L416.663 2666.07L344.643 2652.66L416.422 2635.14L432.735 2563.48L449.169 2635.14L520.827 2652.78Z" fill="white"/>
<path d="M255.825 4074.22L215.586 4081.71L206.643 4124.13L197.58 4081.71L157.341 4074.22L197.46 4064.43L206.643 4024.43L215.827 4064.43L255.825 4074.22Z" fill="white"/>
<path d="M234.195 3706.02L193.956 3713.39L185.014 3755.93L176.071 3713.39L135.711 3706.02L175.83 3696.23L185.014 3656.11L194.197 3696.23L234.195 3706.02Z" fill="white"/>
<path d="M467.659 2416.06L427.419 2423.55L418.356 2465.96L409.414 2423.55L369.174 2416.06L409.293 2406.27L418.356 2366.27L427.54 2406.27L467.659 2416.06Z" fill="white"/>
<path d="M351.048 4166.06C348.488 4166.75 346.228 4168.27 344.617 4170.38C343.006 4172.49 342.133 4175.07 342.133 4177.72C342.133 4180.37 343.006 4182.95 344.617 4185.06C346.228 4187.17 348.488 4188.68 351.048 4189.38C353.608 4188.68 355.868 4187.17 357.479 4185.06C359.09 4182.95 359.963 4180.37 359.963 4177.72C359.963 4175.07 359.09 4172.49 357.479 4170.38C355.868 4168.27 353.608 4166.75 351.048 4166.06Z" fill="white"/>
<path d="M684.083 2359.26C681.523 2359.95 679.263 2361.47 677.652 2363.58C676.041 2365.69 675.168 2368.27 675.168 2370.92C675.168 2373.57 676.041 2376.15 677.652 2378.26C679.263 2380.37 681.523 2381.88 684.083 2382.58C686.643 2381.88 688.903 2380.37 690.514 2378.26C692.125 2376.15 692.998 2373.57 692.998 2370.92C692.998 2368.27 692.125 2365.69 690.514 2363.58C688.903 2361.47 686.643 2359.95 684.083 2359.26Z" fill="white"/>
<path d="M55.956 3399.81C53.3961 3400.51 51.1362 3402.03 49.5251 3404.13C47.9139 3406.24 47.041 3408.82 47.041 3411.47C47.041 3414.13 47.9139 3416.71 49.5251 3418.81C51.1362 3420.92 53.3961 3422.44 55.956 3423.13C58.5159 3422.44 60.7758 3420.92 62.3869 3418.81C63.9981 3416.71 64.871 3414.13 64.871 3411.47C64.871 3408.82 63.9981 3406.24 62.3869 3404.13C60.7758 3402.03 58.5159 3400.51 55.956 3399.81Z" fill="white"/>
<path d="M330.263 4105.28C328.24 4105.52 326.376 4106.5 325.025 4108.02C323.673 4109.55 322.927 4111.52 322.927 4113.55C322.927 4115.59 323.673 4117.56 325.025 4119.08C326.376 4120.61 328.24 4121.59 330.263 4121.83C332.286 4121.59 334.149 4120.61 335.501 4119.08C336.852 4117.56 337.599 4115.59 337.599 4113.55C337.599 4111.52 336.852 4109.55 335.501 4108.02C334.149 4106.5 332.286 4105.52 330.263 4105.28Z" fill="white"/>
<path d="M51.7269 2992.1C49.5476 2992.1 47.4576 2992.96 45.9166 2994.5C44.3756 2996.05 43.5098 2998.14 43.5098 3000.31C43.5098 3002.49 44.3756 3004.58 45.9166 3006.13C47.4576 3007.67 49.5476 3008.53 51.7269 3008.53C53.9062 3008.53 55.9963 3007.67 57.5373 3006.13C59.0783 3004.58 59.944 3002.49 59.944 3000.31C59.944 2998.14 59.0783 2996.05 57.5373 2994.5C55.9963 2992.96 53.9062 2992.1 51.7269 2992.1Z" fill="white"/>
<path d="M135.711 3836.29C130.05 3836.7 124.757 3839.25 120.893 3843.41C117.029 3847.56 114.882 3853.03 114.882 3858.71C114.882 3864.38 117.029 3869.85 120.893 3874C124.757 3878.16 130.05 3880.71 135.711 3881.12C141.372 3880.71 146.666 3878.16 150.529 3874C154.393 3869.85 156.54 3864.38 156.54 3858.71C156.54 3853.03 154.393 3847.56 150.529 3843.41C146.666 3839.25 141.372 3836.7 135.711 3836.29Z" fill="white"/>
<path d="M157.341 2916.21C151.412 2916.21 145.725 2918.57 141.533 2922.76C137.341 2926.95 134.985 2932.64 134.985 2938.57C134.985 2944.5 137.341 2950.18 141.533 2954.37C145.725 2958.57 151.412 2960.92 157.341 2960.92C163.27 2960.92 168.956 2958.57 173.148 2954.37C177.341 2950.18 179.696 2944.5 179.696 2938.57C179.696 2932.64 177.341 2926.95 173.148 2922.76C168.956 2918.57 163.27 2916.21 157.341 2916.21Z" fill="white"/>
</svg>
