<svg width="20" height="20" viewBox="0 0 20 20" fill="none" xmlns="http://www.w3.org/2000/svg">
<path d="M10 0.539551C4.486 0.539551 0 4.83087 0 10.1056C0 15.3803 4.486 19.6716 10 19.6716C15.514 19.6716 20 15.3803 20 10.1056C20 4.83087 15.514 0.539551 10 0.539551ZM2 10.1056C2 9.24559 2.156 8.42004 2.431 7.64806L4 9.14897L6 11.0622V12.9754L8 14.8886L9 15.8452V17.6924C5.061 17.2189 2 14.0009 2 10.1056ZM16.33 14.7671C15.677 14.2639 14.687 13.932 14 13.932V12.9754C14 12.468 13.7893 11.9813 13.4142 11.6225C13.0391 11.2637 12.5304 11.0622 12 11.0622H8V8.19237C8.53043 8.19237 9.03914 7.9908 9.41421 7.632C9.78929 7.27321 10 6.78658 10 6.27916V5.32256H11C11.5304 5.32256 12.0391 5.12099 12.4142 4.7622C12.7893 4.4034 13 3.91677 13 3.40936V3.01619C15.928 4.15359 18 6.90096 18 10.1056C17.9998 11.7937 17.4123 13.4337 16.33 14.7671Z" fill="#00C4B4"/>
</svg>
