<svg width="800" height="514" viewBox="0 0 800 514" fill="none" xmlns="http://www.w3.org/2000/svg">
<path d="M619.374 0C517.233 0 436.584 82.8142 436.584 184.955C436.584 287.096 520.472 369.91 622.613 369.91C623.635 369.91 625.176 369.772 626.198 369.754C585.812 401.914 535.088 421.292 479.567 421.292C454.023 421.292 433.467 442.005 433.467 467.531C433.467 493.058 449.901 513.77 475.445 513.77C656.746 513.753 800 366.256 800 184.955C800 184.92 800 184.886 800 184.834C800 82.7449 721.481 0 619.374 0Z" fill="#9B5DE5"/>
<path d="M186.167 0C84.0264 0 3.23845 82.8142 3.23845 184.955C3.23845 287.096 87.057 369.91 189.215 369.91C190.237 369.91 191.744 369.772 192.765 369.754C152.38 401.914 101.639 421.292 46.1175 421.292C20.5737 421.292 0 442.005 0 467.531C0 493.058 16.6944 513.77 42.2383 513.77C223.539 513.753 367.053 366.256 367.053 184.955C367.053 184.92 367.053 184.886 367.053 184.834C367.053 82.7449 288.274 0 186.167 0Z" fill="#9B5DE5"/>
</svg>
